<svg id="ecbc1108-b086-4f72-9100-98ddf87c2a2e" data-name="Ebene 1" xmlns="http://www.w3.org/2000/svg" viewBox="0 0 123.45 99.21"><defs><style>.a3a9c50c-051f-44ec-b6a7-97e354ced51f{fill:#fff}</style></defs><path class="a3a9c50c-051f-44ec-b6a7-97e354ced51f" d="M63.49 96.48h59.96v2.73H63.49zM32.65 77.6c-14.56 0-19.34-5.69-19.34-20.71s5.24-21 19.34-21c13.66 0 16.84 8.42 16.84 21 0 12.4-3.41 20.71-16.84 20.71m2.28 11.83c22 0 28-14 28-33.11s-5.7-33.22-27.2-33.22c-12.06 0-19 2.27-22.53 7V0H0v87.84l9 1 2.62-6.6c3.75 4.78 10.24 7.17 23.32 7.17"/></svg>